<?xml version="1.0" encoding="utf-8" standalone="no"?>
<!DOCTYPE svg PUBLIC "-//W3C//DTD SVG 1.1//EN"
  "http://www.w3.org/Graphics/SVG/1.1/DTD/svg11.dtd">
<svg xmlns:xlink="http://www.w3.org/1999/xlink" width="1000.8pt" height="356.4pt" viewBox="0 0 1000.8 356.4" xmlns="http://www.w3.org/2000/svg" version="1.1">
 <metadata>
  <rdf:RDF xmlns:dc="http://purl.org/dc/elements/1.1/" xmlns:cc="http://creativecommons.org/ns#" xmlns:rdf="http://www.w3.org/1999/02/22-rdf-syntax-ns#">
   <cc:Work>
    <dc:type rdf:resource="http://purl.org/dc/dcmitype/StillImage"/>
    <dc:date>2026-07-19T14:45:53.899567</dc:date>
    <dc:format>image/svg+xml</dc:format>
    <dc:creator>
     <cc:Agent>
      <dc:title>Matplotlib v3.10.3, https://matplotlib.org/</dc:title>
     </cc:Agent>
    </dc:creator>
   </cc:Work>
  </rdf:RDF>
 </metadata>
 <defs>
  <style type="text/css">*{stroke-linejoin: round; stroke-linecap: butt}</style>
 </defs>
 <g id="figure_1">
  <g id="patch_1">
   <path d="M 0 356.4 
L 1000.8 356.4 
L 1000.8 0 
L 0 0 
z
" style="fill: #ffffff"/>
  </g>
  <g id="axes_1">
   <g id="patch_2">
    <path d="M 32.0778 201.2172 
L 109.1502 201.2172 
Q 114.0282 201.2172 114.0282 197.8992 
L 114.0282 170.3598 
Q 114.0282 167.0418 109.1502 167.0418 
L 32.0778 167.0418 
Q 27.1998 167.0418 27.1998 170.3598 
L 27.1998 197.8992 
Q 27.1998 201.2172 32.0778 201.2172 
z
" clip-path="url(#p518383bb61)" style="fill: #3b82f6; opacity: 0.12; stroke: #3b82f6; stroke-width: 1.7; stroke-linejoin: miter"/>
   </g>
   <g id="patch_3">
    <path d="M 146.7108 201.2172 
L 223.7832 201.2172 
Q 228.6612 201.2172 228.6612 197.8992 
L 228.6612 170.3598 
Q 228.6612 167.0418 223.7832 167.0418 
L 146.7108 167.0418 
Q 141.8328 167.0418 141.8328 170.3598 
L 141.8328 197.8992 
Q 141.8328 201.2172 146.7108 201.2172 
z
" clip-path="url(#p518383bb61)" style="fill: #f59e0b; opacity: 0.12; stroke: #f59e0b; stroke-width: 1.7; stroke-linejoin: miter"/>
   </g>
   <g id="patch_4">
    <path d="M 114.07804 183.9636 
Q 127.931997 183.9636 140.108904 183.9636 
" clip-path="url(#p518383bb61)" style="fill: none; stroke: #64748b; stroke-width: 1.5; stroke-linecap: round"/>
    <path d="M 135.308904 181.5636 
L 140.108904 183.9636 
L 135.308904 186.3636 
z
" clip-path="url(#p518383bb61)" style="fill: #64748b; stroke: #64748b; stroke-width: 1.5; stroke-linecap: round"/>
   </g>
   <g id="patch_5">
    <path d="M 261.3438 201.2172 
L 338.4162 201.2172 
Q 343.2942 201.2172 343.2942 197.8992 
L 343.2942 170.3598 
Q 343.2942 167.0418 338.4162 167.0418 
L 261.3438 167.0418 
Q 256.4658 167.0418 256.4658 170.3598 
L 256.4658 197.8992 
Q 256.4658 201.2172 261.3438 201.2172 
z
" clip-path="url(#p518383bb61)" style="fill: #ef4444; opacity: 0.12; stroke: #ef4444; stroke-width: 1.7; stroke-linejoin: miter"/>
   </g>
   <g id="patch_6">
    <path d="M 228.71104 183.9636 
Q 242.564997 183.9636 254.741904 183.9636 
" clip-path="url(#p518383bb61)" style="fill: none; stroke: #64748b; stroke-width: 1.5; stroke-linecap: round"/>
    <path d="M 249.941904 181.5636 
L 254.741904 183.9636 
L 249.941904 186.3636 
z
" clip-path="url(#p518383bb61)" style="fill: #64748b; stroke: #64748b; stroke-width: 1.5; stroke-linecap: round"/>
   </g>
   <g id="patch_7">
    <path d="M 375.9768 201.2172 
L 453.0492 201.2172 
Q 457.9272 201.2172 457.9272 197.8992 
L 457.9272 170.3598 
Q 457.9272 167.0418 453.0492 167.0418 
L 375.9768 167.0418 
Q 371.0988 167.0418 371.0988 170.3598 
L 371.0988 197.8992 
Q 371.0988 201.2172 375.9768 201.2172 
z
" clip-path="url(#p518383bb61)" style="fill: #3b82f6; opacity: 0.12; stroke: #3b82f6; stroke-width: 1.7; stroke-linejoin: miter"/>
   </g>
   <g id="patch_8">
    <path d="M 343.34404 183.9636 
Q 357.197997 183.9636 369.374904 183.9636 
" clip-path="url(#p518383bb61)" style="fill: none; stroke: #64748b; stroke-width: 1.5; stroke-linecap: round"/>
    <path d="M 364.574904 181.5636 
L 369.374904 183.9636 
L 364.574904 186.3636 
z
" clip-path="url(#p518383bb61)" style="fill: #64748b; stroke: #64748b; stroke-width: 1.5; stroke-linecap: round"/>
   </g>
   <g id="patch_9">
    <path d="M 119.8818 292.4622 
L 382.3182 292.4622 
Q 387.1962 292.4622 387.1962 289.1442 
L 387.1962 258.2868 
Q 387.1962 254.9688 382.3182 254.9688 
L 119.8818 254.9688 
Q 115.0038 254.9688 115.0038 258.2868 
L 115.0038 289.1442 
Q 115.0038 292.4622 119.8818 292.4622 
z
" clip-path="url(#p518383bb61)" style="fill: #ef4444; opacity: 0.12; stroke: #ef4444; stroke-width: 1.7; stroke-linejoin: miter"/>
   </g>
   <g id="patch_10">
    <path d="M 251.1 201.890237 
Q 251.1 228.091938 251.1 252.616588 
" clip-path="url(#p518383bb61)" style="fill: none; stroke: #ef4444; stroke-width: 1.5; stroke-linecap: round"/>
    <path d="M 253.5 247.816588 
L 251.1 252.616588 
L 248.7 247.816588 
z
" clip-path="url(#p518383bb61)" style="fill: #ef4444; stroke: #ef4444; stroke-width: 1.5; stroke-linecap: round"/>
   </g>
   <g id="text_1">
    <!-- QKᵀ -->
    <g style="fill: #0f172a" transform="translate(62.388844 186.612937) scale(0.09 -0.09)">
     <defs>
      <path id="DejaVuSans-51" d="M 2522 4238 
Q 1834 4238 1429 3725 
Q 1025 3213 1025 2328 
Q 1025 1447 1429 934 
Q 1834 422 2522 422 
Q 3209 422 3611 934 
Q 4013 1447 4013 2328 
Q 4013 3213 3611 3725 
Q 3209 4238 2522 4238 
z
M 3406 84 
L 4238 -825 
L 3475 -825 
L 2784 -78 
Q 2681 -84 2626 -87 
Q 2572 -91 2522 -91 
Q 1538 -91 948 567 
Q 359 1225 359 2328 
Q 359 3434 948 4092 
Q 1538 4750 2522 4750 
Q 3503 4750 4090 4092 
Q 4678 3434 4678 2328 
Q 4678 1516 4351 937 
Q 4025 359 3406 84 
z
" transform="scale(0.015625)"/>
      <path id="DejaVuSans-4b" d="M 628 4666 
L 1259 4666 
L 1259 2694 
L 3353 4666 
L 4166 4666 
L 1850 2491 
L 4331 0 
L 3500 0 
L 1259 2247 
L 1259 0 
L 628 0 
L 628 4666 
z
" transform="scale(0.015625)"/>
      <path id="DejaVuSans-1d40" d="M -13 4700 
L 2475 4700 
L 2475 4403 
L 1431 4403 
L 1431 2088 
L 1031 2088 
L 1031 4403 
L -13 4403 
L -13 4700 
z
" transform="scale(0.015625)"/>
     </defs>
     <use xlink:href="#DejaVuSans-51"/>
     <use xlink:href="#DejaVuSans-4b" transform="translate(78.710938 0)"/>
     <use xlink:href="#DejaVuSans-1d40" transform="translate(144.287109 0)"/>
    </g>
   </g>
   <g id="text_2">
    <!-- + bias -->
    <g style="fill: #0f172a" transform="translate(170.837156 186.612937) scale(0.09 -0.09)">
     <defs>
      <path id="DejaVuSans-2b" d="M 2944 4013 
L 2944 2272 
L 4684 2272 
L 4684 1741 
L 2944 1741 
L 2944 0 
L 2419 0 
L 2419 1741 
L 678 1741 
L 678 2272 
L 2419 2272 
L 2419 4013 
L 2944 4013 
z
" transform="scale(0.015625)"/>
      <path id="DejaVuSans-20" transform="scale(0.015625)"/>
      <path id="DejaVuSans-62" d="M 3116 1747 
Q 3116 2381 2855 2742 
Q 2594 3103 2138 3103 
Q 1681 3103 1420 2742 
Q 1159 2381 1159 1747 
Q 1159 1113 1420 752 
Q 1681 391 2138 391 
Q 2594 391 2855 752 
Q 3116 1113 3116 1747 
z
M 1159 2969 
Q 1341 3281 1617 3432 
Q 1894 3584 2278 3584 
Q 2916 3584 3314 3078 
Q 3713 2572 3713 1747 
Q 3713 922 3314 415 
Q 2916 -91 2278 -91 
Q 1894 -91 1617 61 
Q 1341 213 1159 525 
L 1159 0 
L 581 0 
L 581 4863 
L 1159 4863 
L 1159 2969 
z
" transform="scale(0.015625)"/>
      <path id="DejaVuSans-69" d="M 603 3500 
L 1178 3500 
L 1178 0 
L 603 0 
L 603 3500 
z
M 603 4863 
L 1178 4863 
L 1178 4134 
L 603 4134 
L 603 4863 
z
" transform="scale(0.015625)"/>
      <path id="DejaVuSans-61" d="M 2194 1759 
Q 1497 1759 1228 1600 
Q 959 1441 959 1056 
Q 959 750 1161 570 
Q 1363 391 1709 391 
Q 2188 391 2477 730 
Q 2766 1069 2766 1631 
L 2766 1759 
L 2194 1759 
z
M 3341 1997 
L 3341 0 
L 2766 0 
L 2766 531 
Q 2569 213 2275 61 
Q 1981 -91 1556 -91 
Q 1019 -91 701 211 
Q 384 513 384 1019 
Q 384 1609 779 1909 
Q 1175 2209 1959 2209 
L 2766 2209 
L 2766 2266 
Q 2766 2663 2505 2880 
Q 2244 3097 1772 3097 
Q 1472 3097 1187 3025 
Q 903 2953 641 2809 
L 641 3341 
Q 956 3463 1253 3523 
Q 1550 3584 1831 3584 
Q 2591 3584 2966 3190 
Q 3341 2797 3341 1997 
z
" transform="scale(0.015625)"/>
      <path id="DejaVuSans-73" d="M 2834 3397 
L 2834 2853 
Q 2591 2978 2328 3040 
Q 2066 3103 1784 3103 
Q 1356 3103 1142 2972 
Q 928 2841 928 2578 
Q 928 2378 1081 2264 
Q 1234 2150 1697 2047 
L 1894 2003 
Q 2506 1872 2764 1633 
Q 3022 1394 3022 966 
Q 3022 478 2636 193 
Q 2250 -91 1575 -91 
Q 1294 -91 989 -36 
Q 684 19 347 128 
L 347 722 
Q 666 556 975 473 
Q 1284 391 1588 391 
Q 1994 391 2212 530 
Q 2431 669 2431 922 
Q 2431 1156 2273 1281 
Q 2116 1406 1581 1522 
L 1381 1569 
Q 847 1681 609 1914 
Q 372 2147 372 2553 
Q 372 3047 722 3315 
Q 1072 3584 1716 3584 
Q 2034 3584 2315 3537 
Q 2597 3491 2834 3397 
z
" transform="scale(0.015625)"/>
     </defs>
     <use xlink:href="#DejaVuSans-2b"/>
     <use xlink:href="#DejaVuSans-20" transform="translate(83.789062 0)"/>
     <use xlink:href="#DejaVuSans-62" transform="translate(115.576172 0)"/>
     <use xlink:href="#DejaVuSans-69" transform="translate(179.052734 0)"/>
     <use xlink:href="#DejaVuSans-61" transform="translate(206.835938 0)"/>
     <use xlink:href="#DejaVuSans-73" transform="translate(268.115234 0)"/>
    </g>
   </g>
   <g id="text_3">
    <!-- softmax -->
    <g style="fill: #0f172a" transform="translate(281.708438 186.612937) scale(0.09 -0.09)">
     <defs>
      <path id="DejaVuSans-6f" d="M 1959 3097 
Q 1497 3097 1228 2736 
Q 959 2375 959 1747 
Q 959 1119 1226 758 
Q 1494 397 1959 397 
Q 2419 397 2687 759 
Q 2956 1122 2956 1747 
Q 2956 2369 2687 2733 
Q 2419 3097 1959 3097 
z
M 1959 3584 
Q 2709 3584 3137 3096 
Q 3566 2609 3566 1747 
Q 3566 888 3137 398 
Q 2709 -91 1959 -91 
Q 1206 -91 779 398 
Q 353 888 353 1747 
Q 353 2609 779 3096 
Q 1206 3584 1959 3584 
z
" transform="scale(0.015625)"/>
      <path id="DejaVuSans-66" d="M 2375 4863 
L 2375 4384 
L 1825 4384 
Q 1516 4384 1395 4259 
Q 1275 4134 1275 3809 
L 1275 3500 
L 2222 3500 
L 2222 3053 
L 1275 3053 
L 1275 0 
L 697 0 
L 697 3053 
L 147 3053 
L 147 3500 
L 697 3500 
L 697 3744 
Q 697 4328 969 4595 
Q 1241 4863 1831 4863 
L 2375 4863 
z
" transform="scale(0.015625)"/>
      <path id="DejaVuSans-74" d="M 1172 4494 
L 1172 3500 
L 2356 3500 
L 2356 3053 
L 1172 3053 
L 1172 1153 
Q 1172 725 1289 603 
Q 1406 481 1766 481 
L 2356 481 
L 2356 0 
L 1766 0 
Q 1100 0 847 248 
Q 594 497 594 1153 
L 594 3053 
L 172 3053 
L 172 3500 
L 594 3500 
L 594 4494 
L 1172 4494 
z
" transform="scale(0.015625)"/>
      <path id="DejaVuSans-6d" d="M 3328 2828 
Q 3544 3216 3844 3400 
Q 4144 3584 4550 3584 
Q 5097 3584 5394 3201 
Q 5691 2819 5691 2113 
L 5691 0 
L 5113 0 
L 5113 2094 
Q 5113 2597 4934 2840 
Q 4756 3084 4391 3084 
Q 3944 3084 3684 2787 
Q 3425 2491 3425 1978 
L 3425 0 
L 2847 0 
L 2847 2094 
Q 2847 2600 2669 2842 
Q 2491 3084 2119 3084 
Q 1678 3084 1418 2786 
Q 1159 2488 1159 1978 
L 1159 0 
L 581 0 
L 581 3500 
L 1159 3500 
L 1159 2956 
Q 1356 3278 1631 3431 
Q 1906 3584 2284 3584 
Q 2666 3584 2933 3390 
Q 3200 3197 3328 2828 
z
" transform="scale(0.015625)"/>
      <path id="DejaVuSans-78" d="M 3513 3500 
L 2247 1797 
L 3578 0 
L 2900 0 
L 1881 1375 
L 863 0 
L 184 0 
L 1544 1831 
L 300 3500 
L 978 3500 
L 1906 2253 
L 2834 3500 
L 3513 3500 
z
" transform="scale(0.015625)"/>
     </defs>
     <use xlink:href="#DejaVuSans-73"/>
     <use xlink:href="#DejaVuSans-6f" transform="translate(52.099609 0)"/>
     <use xlink:href="#DejaVuSans-66" transform="translate(113.28125 0)"/>
     <use xlink:href="#DejaVuSans-74" transform="translate(146.736328 0)"/>
     <use xlink:href="#DejaVuSans-6d" transform="translate(185.945312 0)"/>
     <use xlink:href="#DejaVuSans-61" transform="translate(283.357422 0)"/>
     <use xlink:href="#DejaVuSans-78" transform="translate(344.636719 0)"/>
    </g>
   </g>
   <g id="text_4">
    <!-- P·V -->
    <g style="fill: #0f172a" transform="translate(407.291203 186.612937) scale(0.09 -0.09)">
     <defs>
      <path id="DejaVuSans-50" d="M 1259 4147 
L 1259 2394 
L 2053 2394 
Q 2494 2394 2734 2622 
Q 2975 2850 2975 3272 
Q 2975 3691 2734 3919 
Q 2494 4147 2053 4147 
L 1259 4147 
z
M 628 4666 
L 2053 4666 
Q 2838 4666 3239 4311 
Q 3641 3956 3641 3272 
Q 3641 2581 3239 2228 
Q 2838 1875 2053 1875 
L 1259 1875 
L 1259 0 
L 628 0 
L 628 4666 
z
" transform="scale(0.015625)"/>
      <path id="DejaVuSans-b7" d="M 684 2619 
L 1344 2619 
L 1344 1825 
L 684 1825 
L 684 2619 
z
" transform="scale(0.015625)"/>
      <path id="DejaVuSans-56" d="M 1831 0 
L 50 4666 
L 709 4666 
L 2188 738 
L 3669 4666 
L 4325 4666 
L 2547 0 
L 1831 0 
z
" transform="scale(0.015625)"/>
     </defs>
     <use xlink:href="#DejaVuSans-50"/>
     <use xlink:href="#DejaVuSans-b7" transform="translate(60.302734 0)"/>
     <use xlink:href="#DejaVuSans-56" transform="translate(92.089844 0)"/>
    </g>
   </g>
   <g id="text_5">
    <!-- materialized attention matrix [B, heads, N, N] -->
    <g style="fill: #0f172a" transform="translate(148.102734 276.198937) scale(0.09 -0.09)">
     <defs>
      <path id="DejaVuSans-65" d="M 3597 1894 
L 3597 1613 
L 953 1613 
Q 991 1019 1311 708 
Q 1631 397 2203 397 
Q 2534 397 2845 478 
Q 3156 559 3463 722 
L 3463 178 
Q 3153 47 2828 -22 
Q 2503 -91 2169 -91 
Q 1331 -91 842 396 
Q 353 884 353 1716 
Q 353 2575 817 3079 
Q 1281 3584 2069 3584 
Q 2775 3584 3186 3129 
Q 3597 2675 3597 1894 
z
M 3022 2063 
Q 3016 2534 2758 2815 
Q 2500 3097 2075 3097 
Q 1594 3097 1305 2825 
Q 1016 2553 972 2059 
L 3022 2063 
z
" transform="scale(0.015625)"/>
      <path id="DejaVuSans-72" d="M 2631 2963 
Q 2534 3019 2420 3045 
Q 2306 3072 2169 3072 
Q 1681 3072 1420 2755 
Q 1159 2438 1159 1844 
L 1159 0 
L 581 0 
L 581 3500 
L 1159 3500 
L 1159 2956 
Q 1341 3275 1631 3429 
Q 1922 3584 2338 3584 
Q 2397 3584 2469 3576 
Q 2541 3569 2628 3553 
L 2631 2963 
z
" transform="scale(0.015625)"/>
      <path id="DejaVuSans-6c" d="M 603 4863 
L 1178 4863 
L 1178 0 
L 603 0 
L 603 4863 
z
" transform="scale(0.015625)"/>
      <path id="DejaVuSans-7a" d="M 353 3500 
L 3084 3500 
L 3084 2975 
L 922 459 
L 3084 459 
L 3084 0 
L 275 0 
L 275 525 
L 2438 3041 
L 353 3041 
L 353 3500 
z
" transform="scale(0.015625)"/>
      <path id="DejaVuSans-64" d="M 2906 2969 
L 2906 4863 
L 3481 4863 
L 3481 0 
L 2906 0 
L 2906 525 
Q 2725 213 2448 61 
Q 2172 -91 1784 -91 
Q 1150 -91 751 415 
Q 353 922 353 1747 
Q 353 2572 751 3078 
Q 1150 3584 1784 3584 
Q 2172 3584 2448 3432 
Q 2725 3281 2906 2969 
z
M 947 1747 
Q 947 1113 1208 752 
Q 1469 391 1925 391 
Q 2381 391 2643 752 
Q 2906 1113 2906 1747 
Q 2906 2381 2643 2742 
Q 2381 3103 1925 3103 
Q 1469 3103 1208 2742 
Q 947 2381 947 1747 
z
" transform="scale(0.015625)"/>
      <path id="DejaVuSans-6e" d="M 3513 2113 
L 3513 0 
L 2938 0 
L 2938 2094 
Q 2938 2591 2744 2837 
Q 2550 3084 2163 3084 
Q 1697 3084 1428 2787 
Q 1159 2491 1159 1978 
L 1159 0 
L 581 0 
L 581 3500 
L 1159 3500 
L 1159 2956 
Q 1366 3272 1645 3428 
Q 1925 3584 2291 3584 
Q 2894 3584 3203 3211 
Q 3513 2838 3513 2113 
z
" transform="scale(0.015625)"/>
      <path id="DejaVuSans-5b" d="M 550 4863 
L 1875 4863 
L 1875 4416 
L 1125 4416 
L 1125 -397 
L 1875 -397 
L 1875 -844 
L 550 -844 
L 550 4863 
z
" transform="scale(0.015625)"/>
      <path id="DejaVuSans-42" d="M 1259 2228 
L 1259 519 
L 2272 519 
Q 2781 519 3026 730 
Q 3272 941 3272 1375 
Q 3272 1813 3026 2020 
Q 2781 2228 2272 2228 
L 1259 2228 
z
M 1259 4147 
L 1259 2741 
L 2194 2741 
Q 2656 2741 2882 2914 
Q 3109 3088 3109 3444 
Q 3109 3797 2882 3972 
Q 2656 4147 2194 4147 
L 1259 4147 
z
M 628 4666 
L 2241 4666 
Q 2963 4666 3353 4366 
Q 3744 4066 3744 3513 
Q 3744 3084 3544 2831 
Q 3344 2578 2956 2516 
Q 3422 2416 3680 2098 
Q 3938 1781 3938 1306 
Q 3938 681 3513 340 
Q 3088 0 2303 0 
L 628 0 
L 628 4666 
z
" transform="scale(0.015625)"/>
      <path id="DejaVuSans-2c" d="M 750 794 
L 1409 794 
L 1409 256 
L 897 -744 
L 494 -744 
L 750 256 
L 750 794 
z
" transform="scale(0.015625)"/>
      <path id="DejaVuSans-68" d="M 3513 2113 
L 3513 0 
L 2938 0 
L 2938 2094 
Q 2938 2591 2744 2837 
Q 2550 3084 2163 3084 
Q 1697 3084 1428 2787 
Q 1159 2491 1159 1978 
L 1159 0 
L 581 0 
L 581 4863 
L 1159 4863 
L 1159 2956 
Q 1366 3272 1645 3428 
Q 1925 3584 2291 3584 
Q 2894 3584 3203 3211 
Q 3513 2838 3513 2113 
z
" transform="scale(0.015625)"/>
      <path id="DejaVuSans-4e" d="M 628 4666 
L 1478 4666 
L 3547 763 
L 3547 4666 
L 4159 4666 
L 4159 0 
L 3309 0 
L 1241 3903 
L 1241 0 
L 628 0 
L 628 4666 
z
" transform="scale(0.015625)"/>
      <path id="DejaVuSans-5d" d="M 1947 4863 
L 1947 -844 
L 622 -844 
L 622 -397 
L 1369 -397 
L 1369 4416 
L 622 4416 
L 622 4863 
L 1947 4863 
z
" transform="scale(0.015625)"/>
     </defs>
     <use xlink:href="#DejaVuSans-6d"/>
     <use xlink:href="#DejaVuSans-61" transform="translate(97.412109 0)"/>
     <use xlink:href="#DejaVuSans-74" transform="translate(158.691406 0)"/>
     <use xlink:href="#DejaVuSans-65" transform="translate(197.900391 0)"/>
     <use xlink:href="#DejaVuSans-72" transform="translate(259.423828 0)"/>
     <use xlink:href="#DejaVuSans-69" transform="translate(300.537109 0)"/>
     <use xlink:href="#DejaVuSans-61" transform="translate(328.320312 0)"/>
     <use xlink:href="#DejaVuSans-6c" transform="translate(389.599609 0)"/>
     <use xlink:href="#DejaVuSans-69" transform="translate(417.382812 0)"/>
     <use xlink:href="#DejaVuSans-7a" transform="translate(445.166016 0)"/>
     <use xlink:href="#DejaVuSans-65" transform="translate(497.65625 0)"/>
     <use xlink:href="#DejaVuSans-64" transform="translate(559.179688 0)"/>
     <use xlink:href="#DejaVuSans-20" transform="translate(622.65625 0)"/>
     <use xlink:href="#DejaVuSans-61" transform="translate(654.443359 0)"/>
     <use xlink:href="#DejaVuSans-74" transform="translate(715.722656 0)"/>
     <use xlink:href="#DejaVuSans-74" transform="translate(754.931641 0)"/>
     <use xlink:href="#DejaVuSans-65" transform="translate(794.140625 0)"/>
     <use xlink:href="#DejaVuSans-6e" transform="translate(855.664062 0)"/>
     <use xlink:href="#DejaVuSans-74" transform="translate(919.042969 0)"/>
     <use xlink:href="#DejaVuSans-69" transform="translate(958.251953 0)"/>
     <use xlink:href="#DejaVuSans-6f" transform="translate(986.035156 0)"/>
     <use xlink:href="#DejaVuSans-6e" transform="translate(1047.216797 0)"/>
     <use xlink:href="#DejaVuSans-20" transform="translate(1110.595703 0)"/>
     <use xlink:href="#DejaVuSans-6d" transform="translate(1142.382812 0)"/>
     <use xlink:href="#DejaVuSans-61" transform="translate(1239.794922 0)"/>
     <use xlink:href="#DejaVuSans-74" transform="translate(1301.074219 0)"/>
     <use xlink:href="#DejaVuSans-72" transform="translate(1340.283203 0)"/>
     <use xlink:href="#DejaVuSans-69" transform="translate(1381.396484 0)"/>
     <use xlink:href="#DejaVuSans-78" transform="translate(1409.179688 0)"/>
     <use xlink:href="#DejaVuSans-20" transform="translate(1468.359375 0)"/>
     <use xlink:href="#DejaVuSans-5b" transform="translate(1500.146484 0)"/>
     <use xlink:href="#DejaVuSans-42" transform="translate(1539.160156 0)"/>
     <use xlink:href="#DejaVuSans-2c" transform="translate(1607.763672 0)"/>
     <use xlink:href="#DejaVuSans-20" transform="translate(1639.550781 0)"/>
     <use xlink:href="#DejaVuSans-68" transform="translate(1671.337891 0)"/>
     <use xlink:href="#DejaVuSans-65" transform="translate(1734.716797 0)"/>
     <use xlink:href="#DejaVuSans-61" transform="translate(1796.240234 0)"/>
     <use xlink:href="#DejaVuSans-64" transform="translate(1857.519531 0)"/>
     <use xlink:href="#DejaVuSans-73" transform="translate(1920.996094 0)"/>
     <use xlink:href="#DejaVuSans-2c" transform="translate(1973.095703 0)"/>
     <use xlink:href="#DejaVuSans-20" transform="translate(2004.882812 0)"/>
     <use xlink:href="#DejaVuSans-4e" transform="translate(2036.669922 0)"/>
     <use xlink:href="#DejaVuSans-2c" transform="translate(2111.474609 0)"/>
     <use xlink:href="#DejaVuSans-20" transform="translate(2143.261719 0)"/>
     <use xlink:href="#DejaVuSans-4e" transform="translate(2175.048828 0)"/>
     <use xlink:href="#DejaVuSans-5d" transform="translate(2249.853516 0)"/>
    </g>
   </g>
   <g id="text_6">
    <!-- multiple kernels + global-memory round trips -->
    <g style="fill: #ef4444" transform="translate(136.907031 135.189) scale(0.1 -0.1)">
     <defs>
      <path id="DejaVuSans-75" d="M 544 1381 
L 544 3500 
L 1119 3500 
L 1119 1403 
Q 1119 906 1312 657 
Q 1506 409 1894 409 
Q 2359 409 2629 706 
Q 2900 1003 2900 1516 
L 2900 3500 
L 3475 3500 
L 3475 0 
L 2900 0 
L 2900 538 
Q 2691 219 2414 64 
Q 2138 -91 1772 -91 
Q 1169 -91 856 284 
Q 544 659 544 1381 
z
M 1991 3584 
L 1991 3584 
z
" transform="scale(0.015625)"/>
      <path id="DejaVuSans-70" d="M 1159 525 
L 1159 -1331 
L 581 -1331 
L 581 3500 
L 1159 3500 
L 1159 2969 
Q 1341 3281 1617 3432 
Q 1894 3584 2278 3584 
Q 2916 3584 3314 3078 
Q 3713 2572 3713 1747 
Q 3713 922 3314 415 
Q 2916 -91 2278 -91 
Q 1894 -91 1617 61 
Q 1341 213 1159 525 
z
M 3116 1747 
Q 3116 2381 2855 2742 
Q 2594 3103 2138 3103 
Q 1681 3103 1420 2742 
Q 1159 2381 1159 1747 
Q 1159 1113 1420 752 
Q 1681 391 2138 391 
Q 2594 391 2855 752 
Q 3116 1113 3116 1747 
z
" transform="scale(0.015625)"/>
      <path id="DejaVuSans-6b" d="M 581 4863 
L 1159 4863 
L 1159 1991 
L 2875 3500 
L 3609 3500 
L 1753 1863 
L 3688 0 
L 2938 0 
L 1159 1709 
L 1159 0 
L 581 0 
L 581 4863 
z
" transform="scale(0.015625)"/>
      <path id="DejaVuSans-67" d="M 2906 1791 
Q 2906 2416 2648 2759 
Q 2391 3103 1925 3103 
Q 1463 3103 1205 2759 
Q 947 2416 947 1791 
Q 947 1169 1205 825 
Q 1463 481 1925 481 
Q 2391 481 2648 825 
Q 2906 1169 2906 1791 
z
M 3481 434 
Q 3481 -459 3084 -895 
Q 2688 -1331 1869 -1331 
Q 1566 -1331 1297 -1286 
Q 1028 -1241 775 -1147 
L 775 -588 
Q 1028 -725 1275 -790 
Q 1522 -856 1778 -856 
Q 2344 -856 2625 -561 
Q 2906 -266 2906 331 
L 2906 616 
Q 2728 306 2450 153 
Q 2172 0 1784 0 
Q 1141 0 747 490 
Q 353 981 353 1791 
Q 353 2603 747 3093 
Q 1141 3584 1784 3584 
Q 2172 3584 2450 3431 
Q 2728 3278 2906 2969 
L 2906 3500 
L 3481 3500 
L 3481 434 
z
" transform="scale(0.015625)"/>
      <path id="DejaVuSans-2d" d="M 313 2009 
L 1997 2009 
L 1997 1497 
L 313 1497 
L 313 2009 
z
" transform="scale(0.015625)"/>
      <path id="DejaVuSans-79" d="M 2059 -325 
Q 1816 -950 1584 -1140 
Q 1353 -1331 966 -1331 
L 506 -1331 
L 506 -850 
L 844 -850 
Q 1081 -850 1212 -737 
Q 1344 -625 1503 -206 
L 1606 56 
L 191 3500 
L 800 3500 
L 1894 763 
L 2988 3500 
L 3597 3500 
L 2059 -325 
z
" transform="scale(0.015625)"/>
     </defs>
     <use xlink:href="#DejaVuSans-6d"/>
     <use xlink:href="#DejaVuSans-75" transform="translate(97.412109 0)"/>
     <use xlink:href="#DejaVuSans-6c" transform="translate(160.791016 0)"/>
     <use xlink:href="#DejaVuSans-74" transform="translate(188.574219 0)"/>
     <use xlink:href="#DejaVuSans-69" transform="translate(227.783203 0)"/>
     <use xlink:href="#DejaVuSans-70" transform="translate(255.566406 0)"/>
     <use xlink:href="#DejaVuSans-6c" transform="translate(319.042969 0)"/>
     <use xlink:href="#DejaVuSans-65" transform="translate(346.826172 0)"/>
     <use xlink:href="#DejaVuSans-20" transform="translate(408.349609 0)"/>
     <use xlink:href="#DejaVuSans-6b" transform="translate(440.136719 0)"/>
     <use xlink:href="#DejaVuSans-65" transform="translate(494.421875 0)"/>
     <use xlink:href="#DejaVuSans-72" transform="translate(555.945312 0)"/>
     <use xlink:href="#DejaVuSans-6e" transform="translate(595.308594 0)"/>
     <use xlink:href="#DejaVuSans-65" transform="translate(658.6875 0)"/>
     <use xlink:href="#DejaVuSans-6c" transform="translate(720.210938 0)"/>
     <use xlink:href="#DejaVuSans-73" transform="translate(747.994141 0)"/>
     <use xlink:href="#DejaVuSans-20" transform="translate(800.09375 0)"/>
     <use xlink:href="#DejaVuSans-2b" transform="translate(831.880859 0)"/>
     <use xlink:href="#DejaVuSans-20" transform="translate(915.669922 0)"/>
     <use xlink:href="#DejaVuSans-67" transform="translate(947.457031 0)"/>
     <use xlink:href="#DejaVuSans-6c" transform="translate(1010.933594 0)"/>
     <use xlink:href="#DejaVuSans-6f" transform="translate(1038.716797 0)"/>
     <use xlink:href="#DejaVuSans-62" transform="translate(1099.898438 0)"/>
     <use xlink:href="#DejaVuSans-61" transform="translate(1163.375 0)"/>
     <use xlink:href="#DejaVuSans-6c" transform="translate(1224.654297 0)"/>
     <use xlink:href="#DejaVuSans-2d" transform="translate(1252.4375 0)"/>
     <use xlink:href="#DejaVuSans-6d" transform="translate(1288.521484 0)"/>
     <use xlink:href="#DejaVuSans-65" transform="translate(1385.933594 0)"/>
     <use xlink:href="#DejaVuSans-6d" transform="translate(1447.457031 0)"/>
     <use xlink:href="#DejaVuSans-6f" transform="translate(1544.869141 0)"/>
     <use xlink:href="#DejaVuSans-72" transform="translate(1606.050781 0)"/>
     <use xlink:href="#DejaVuSans-79" transform="translate(1647.164062 0)"/>
     <use xlink:href="#DejaVuSans-20" transform="translate(1706.34375 0)"/>
     <use xlink:href="#DejaVuSans-72" transform="translate(1738.130859 0)"/>
     <use xlink:href="#DejaVuSans-6f" transform="translate(1776.994141 0)"/>
     <use xlink:href="#DejaVuSans-75" transform="translate(1838.175781 0)"/>
     <use xlink:href="#DejaVuSans-6e" transform="translate(1901.554688 0)"/>
     <use xlink:href="#DejaVuSans-64" transform="translate(1964.933594 0)"/>
     <use xlink:href="#DejaVuSans-20" transform="translate(2028.410156 0)"/>
     <use xlink:href="#DejaVuSans-74" transform="translate(2060.197266 0)"/>
     <use xlink:href="#DejaVuSans-72" transform="translate(2099.40625 0)"/>
     <use xlink:href="#DejaVuSans-69" transform="translate(2140.519531 0)"/>
     <use xlink:href="#DejaVuSans-70" transform="translate(2168.302734 0)"/>
     <use xlink:href="#DejaVuSans-73" transform="translate(2231.779297 0)"/>
    </g>
   </g>
   <g id="text_7">
    <!-- (a) Hand-written window attention -->
    <g transform="translate(133.262812 77.76) scale(0.12 -0.12)">
     <defs>
      <path id="DejaVuSans-Bold-28" d="M 2413 -844 
L 1484 -844 
Q 1006 -72 778 623 
Q 550 1319 550 2003 
Q 550 2688 779 3389 
Q 1009 4091 1484 4856 
L 2413 4856 
Q 2013 4116 1813 3408 
Q 1613 2700 1613 2009 
Q 1613 1319 1811 609 
Q 2009 -100 2413 -844 
z
" transform="scale(0.015625)"/>
      <path id="DejaVuSans-Bold-61" d="M 2106 1575 
Q 1756 1575 1579 1456 
Q 1403 1338 1403 1106 
Q 1403 894 1545 773 
Q 1688 653 1941 653 
Q 2256 653 2472 879 
Q 2688 1106 2688 1447 
L 2688 1575 
L 2106 1575 
z
M 3816 1997 
L 3816 0 
L 2688 0 
L 2688 519 
Q 2463 200 2181 54 
Q 1900 -91 1497 -91 
Q 953 -91 614 226 
Q 275 544 275 1050 
Q 275 1666 698 1953 
Q 1122 2241 2028 2241 
L 2688 2241 
L 2688 2328 
Q 2688 2594 2478 2717 
Q 2269 2841 1825 2841 
Q 1466 2841 1156 2769 
Q 847 2697 581 2553 
L 581 3406 
Q 941 3494 1303 3539 
Q 1666 3584 2028 3584 
Q 2975 3584 3395 3211 
Q 3816 2838 3816 1997 
z
" transform="scale(0.015625)"/>
      <path id="DejaVuSans-Bold-29" d="M 513 -844 
Q 913 -100 1113 609 
Q 1313 1319 1313 2009 
Q 1313 2700 1113 3408 
Q 913 4116 513 4856 
L 1441 4856 
Q 1916 4091 2145 3389 
Q 2375 2688 2375 2003 
Q 2375 1319 2147 623 
Q 1919 -72 1441 -844 
L 513 -844 
z
" transform="scale(0.015625)"/>
      <path id="DejaVuSans-Bold-20" transform="scale(0.015625)"/>
      <path id="DejaVuSans-Bold-48" d="M 588 4666 
L 1791 4666 
L 1791 2888 
L 3566 2888 
L 3566 4666 
L 4769 4666 
L 4769 0 
L 3566 0 
L 3566 1978 
L 1791 1978 
L 1791 0 
L 588 0 
L 588 4666 
z
" transform="scale(0.015625)"/>
      <path id="DejaVuSans-Bold-6e" d="M 4056 2131 
L 4056 0 
L 2931 0 
L 2931 347 
L 2931 1631 
Q 2931 2084 2911 2256 
Q 2891 2428 2841 2509 
Q 2775 2619 2662 2680 
Q 2550 2741 2406 2741 
Q 2056 2741 1856 2470 
Q 1656 2200 1656 1722 
L 1656 0 
L 538 0 
L 538 3500 
L 1656 3500 
L 1656 2988 
Q 1909 3294 2193 3439 
Q 2478 3584 2822 3584 
Q 3428 3584 3742 3212 
Q 4056 2841 4056 2131 
z
" transform="scale(0.015625)"/>
      <path id="DejaVuSans-Bold-64" d="M 2919 2988 
L 2919 4863 
L 4044 4863 
L 4044 0 
L 2919 0 
L 2919 506 
Q 2688 197 2409 53 
Q 2131 -91 1766 -91 
Q 1119 -91 703 423 
Q 288 938 288 1747 
Q 288 2556 703 3070 
Q 1119 3584 1766 3584 
Q 2128 3584 2408 3439 
Q 2688 3294 2919 2988 
z
M 2181 722 
Q 2541 722 2730 984 
Q 2919 1247 2919 1747 
Q 2919 2247 2730 2509 
Q 2541 2772 2181 2772 
Q 1825 2772 1636 2509 
Q 1447 2247 1447 1747 
Q 1447 1247 1636 984 
Q 1825 722 2181 722 
z
" transform="scale(0.015625)"/>
      <path id="DejaVuSans-Bold-2d" d="M 347 2297 
L 2309 2297 
L 2309 1388 
L 347 1388 
L 347 2297 
z
" transform="scale(0.015625)"/>
      <path id="DejaVuSans-Bold-77" d="M 225 3500 
L 1313 3500 
L 1900 1088 
L 2491 3500 
L 3425 3500 
L 4013 1113 
L 4603 3500 
L 5691 3500 
L 4769 0 
L 3547 0 
L 2956 2406 
L 2369 0 
L 1147 0 
L 225 3500 
z
" transform="scale(0.015625)"/>
      <path id="DejaVuSans-Bold-72" d="M 3138 2547 
Q 2991 2616 2845 2648 
Q 2700 2681 2553 2681 
Q 2122 2681 1889 2404 
Q 1656 2128 1656 1613 
L 1656 0 
L 538 0 
L 538 3500 
L 1656 3500 
L 1656 2925 
Q 1872 3269 2151 3426 
Q 2431 3584 2822 3584 
Q 2878 3584 2943 3579 
Q 3009 3575 3134 3559 
L 3138 2547 
z
" transform="scale(0.015625)"/>
      <path id="DejaVuSans-Bold-69" d="M 538 3500 
L 1656 3500 
L 1656 0 
L 538 0 
L 538 3500 
z
M 538 4863 
L 1656 4863 
L 1656 3950 
L 538 3950 
L 538 4863 
z
" transform="scale(0.015625)"/>
      <path id="DejaVuSans-Bold-74" d="M 1759 4494 
L 1759 3500 
L 2913 3500 
L 2913 2700 
L 1759 2700 
L 1759 1216 
Q 1759 972 1856 886 
Q 1953 800 2241 800 
L 2816 800 
L 2816 0 
L 1856 0 
Q 1194 0 917 276 
Q 641 553 641 1216 
L 641 2700 
L 84 2700 
L 84 3500 
L 641 3500 
L 641 4494 
L 1759 4494 
z
" transform="scale(0.015625)"/>
      <path id="DejaVuSans-Bold-65" d="M 4031 1759 
L 4031 1441 
L 1416 1441 
Q 1456 1047 1700 850 
Q 1944 653 2381 653 
Q 2734 653 3104 758 
Q 3475 863 3866 1075 
L 3866 213 
Q 3469 63 3072 -14 
Q 2675 -91 2278 -91 
Q 1328 -91 801 392 
Q 275 875 275 1747 
Q 275 2603 792 3093 
Q 1309 3584 2216 3584 
Q 3041 3584 3536 3087 
Q 4031 2591 4031 1759 
z
M 2881 2131 
Q 2881 2450 2695 2645 
Q 2509 2841 2209 2841 
Q 1884 2841 1681 2658 
Q 1478 2475 1428 2131 
L 2881 2131 
z
" transform="scale(0.015625)"/>
      <path id="DejaVuSans-Bold-6f" d="M 2203 2784 
Q 1831 2784 1636 2517 
Q 1441 2250 1441 1747 
Q 1441 1244 1636 976 
Q 1831 709 2203 709 
Q 2569 709 2762 976 
Q 2956 1244 2956 1747 
Q 2956 2250 2762 2517 
Q 2569 2784 2203 2784 
z
M 2203 3584 
Q 3106 3584 3614 3096 
Q 4122 2609 4122 1747 
Q 4122 884 3614 396 
Q 3106 -91 2203 -91 
Q 1297 -91 786 396 
Q 275 884 275 1747 
Q 275 2609 786 3096 
Q 1297 3584 2203 3584 
z
" transform="scale(0.015625)"/>
     </defs>
     <use xlink:href="#DejaVuSans-Bold-28"/>
     <use xlink:href="#DejaVuSans-Bold-61" transform="translate(45.703125 0)"/>
     <use xlink:href="#DejaVuSans-Bold-29" transform="translate(113.183594 0)"/>
     <use xlink:href="#DejaVuSans-Bold-20" transform="translate(158.886719 0)"/>
     <use xlink:href="#DejaVuSans-Bold-48" transform="translate(193.701172 0)"/>
     <use xlink:href="#DejaVuSans-Bold-61" transform="translate(277.392578 0)"/>
     <use xlink:href="#DejaVuSans-Bold-6e" transform="translate(344.873047 0)"/>
     <use xlink:href="#DejaVuSans-Bold-64" transform="translate(416.064453 0)"/>
     <use xlink:href="#DejaVuSans-Bold-2d" transform="translate(487.646484 0)"/>
     <use xlink:href="#DejaVuSans-Bold-77" transform="translate(529.150391 0)"/>
     <use xlink:href="#DejaVuSans-Bold-72" transform="translate(621.533203 0)"/>
     <use xlink:href="#DejaVuSans-Bold-69" transform="translate(670.849609 0)"/>
     <use xlink:href="#DejaVuSans-Bold-74" transform="translate(705.126953 0)"/>
     <use xlink:href="#DejaVuSans-Bold-74" transform="translate(752.929688 0)"/>
     <use xlink:href="#DejaVuSans-Bold-65" transform="translate(800.732422 0)"/>
     <use xlink:href="#DejaVuSans-Bold-6e" transform="translate(868.554688 0)"/>
     <use xlink:href="#DejaVuSans-Bold-20" transform="translate(939.746094 0)"/>
     <use xlink:href="#DejaVuSans-Bold-77" transform="translate(974.560547 0)"/>
     <use xlink:href="#DejaVuSans-Bold-69" transform="translate(1066.943359 0)"/>
     <use xlink:href="#DejaVuSans-Bold-6e" transform="translate(1101.220703 0)"/>
     <use xlink:href="#DejaVuSans-Bold-64" transform="translate(1172.412109 0)"/>
     <use xlink:href="#DejaVuSans-Bold-6f" transform="translate(1243.994141 0)"/>
     <use xlink:href="#DejaVuSans-Bold-77" transform="translate(1312.695312 0)"/>
     <use xlink:href="#DejaVuSans-Bold-20" transform="translate(1405.078125 0)"/>
     <use xlink:href="#DejaVuSans-Bold-61" transform="translate(1439.892578 0)"/>
     <use xlink:href="#DejaVuSans-Bold-74" transform="translate(1507.373047 0)"/>
     <use xlink:href="#DejaVuSans-Bold-74" transform="translate(1555.175781 0)"/>
     <use xlink:href="#DejaVuSans-Bold-65" transform="translate(1602.978516 0)"/>
     <use xlink:href="#DejaVuSans-Bold-6e" transform="translate(1670.800781 0)"/>
     <use xlink:href="#DejaVuSans-Bold-74" transform="translate(1741.992188 0)"/>
     <use xlink:href="#DejaVuSans-Bold-69" transform="translate(1789.794922 0)"/>
     <use xlink:href="#DejaVuSans-Bold-6f" transform="translate(1824.072266 0)"/>
     <use xlink:href="#DejaVuSans-Bold-6e" transform="translate(1892.773438 0)"/>
    </g>
   </g>
  </g>
  <g id="axes_2">
   <g id="patch_11">
    <path d="M 535.5558 201.2172 
L 627.2622 201.2172 
Q 632.1402 201.2172 632.1402 197.8992 
L 632.1402 170.3598 
Q 632.1402 167.0418 627.2622 167.0418 
L 535.5558 167.0418 
Q 530.6778 167.0418 530.6778 170.3598 
L 530.6778 197.8992 
Q 530.6778 201.2172 535.5558 201.2172 
z
" clip-path="url(#pae772f7171)" style="fill: #3b82f6; opacity: 0.12; stroke: #3b82f6; stroke-width: 1.7; stroke-linejoin: miter"/>
   </g>
   <g id="patch_12">
    <path d="M 667.2618 229.4202 
L 832.1382 229.4202 
Q 837.0162 229.4202 837.0162 226.1022 
L 837.0162 147.1338 
Q 837.0162 143.8158 832.1382 143.8158 
L 667.2618 143.8158 
Q 662.3838 143.8158 662.3838 147.1338 
L 662.3838 226.1022 
Q 662.3838 229.4202 667.2618 229.4202 
z
" clip-path="url(#pae772f7171)" style="fill: #10b981; opacity: 0.12; stroke: #10b981; stroke-width: 1.7; stroke-linejoin: miter"/>
   </g>
   <g id="patch_13">
    <path d="M 872.1378 201.2172 
L 958.9662 201.2172 
Q 963.8442 201.2172 963.8442 197.8992 
L 963.8442 170.3598 
Q 963.8442 167.0418 958.9662 167.0418 
L 872.1378 167.0418 
Q 867.2598 167.0418 867.2598 170.3598 
L 867.2598 197.8992 
Q 867.2598 201.2172 872.1378 201.2172 
z
" clip-path="url(#pae772f7171)" style="fill: #3b82f6; opacity: 0.12; stroke: #3b82f6; stroke-width: 1.7; stroke-linejoin: miter"/>
   </g>
   <g id="patch_14">
    <path d="M 632.185574 183.9636 
Q 647.261504 183.9636 660.660383 183.9636 
" clip-path="url(#pae772f7171)" style="fill: none; stroke: #64748b; stroke-width: 1.5; stroke-linecap: round"/>
    <path d="M 655.860383 181.5636 
L 660.660383 183.9636 
L 655.860383 186.3636 
z
" clip-path="url(#pae772f7171)" style="fill: #64748b; stroke: #64748b; stroke-width: 1.5; stroke-linecap: round"/>
   </g>
   <g id="patch_15">
    <path d="M 837.061574 183.9636 
Q 852.137504 183.9636 865.536383 183.9636 
" clip-path="url(#pae772f7171)" style="fill: none; stroke: #64748b; stroke-width: 1.5; stroke-linecap: round"/>
    <path d="M 860.736383 181.5636 
L 865.536383 183.9636 
L 860.736383 186.3636 
z
" clip-path="url(#pae772f7171)" style="fill: #64748b; stroke: #64748b; stroke-width: 1.5; stroke-linecap: round"/>
   </g>
   <g id="text_8">
    <!-- Q, K, V + bias -->
    <g style="fill: #0f172a" transform="translate(550.276734 186.612937) scale(0.09 -0.09)">
     <use xlink:href="#DejaVuSans-51"/>
     <use xlink:href="#DejaVuSans-2c" transform="translate(78.710938 0)"/>
     <use xlink:href="#DejaVuSans-20" transform="translate(110.498047 0)"/>
     <use xlink:href="#DejaVuSans-4b" transform="translate(142.285156 0)"/>
     <use xlink:href="#DejaVuSans-2c" transform="translate(207.861328 0)"/>
     <use xlink:href="#DejaVuSans-20" transform="translate(239.648438 0)"/>
     <use xlink:href="#DejaVuSans-56" transform="translate(271.435547 0)"/>
     <use xlink:href="#DejaVuSans-20" transform="translate(339.84375 0)"/>
     <use xlink:href="#DejaVuSans-2b" transform="translate(371.630859 0)"/>
     <use xlink:href="#DejaVuSans-20" transform="translate(455.419922 0)"/>
     <use xlink:href="#DejaVuSans-62" transform="translate(487.207031 0)"/>
     <use xlink:href="#DejaVuSans-69" transform="translate(550.683594 0)"/>
     <use xlink:href="#DejaVuSans-61" transform="translate(578.466797 0)"/>
     <use xlink:href="#DejaVuSans-73" transform="translate(639.746094 0)"/>
    </g>
   </g>
   <g id="text_9">
    <!-- scaled_dot_product_attention -->
    <g style="fill: #0f172a" transform="translate(675.9125 178.0405) scale(0.1 -0.1)">
     <defs>
      <path id="DejaVuSans-63" d="M 3122 3366 
L 3122 2828 
Q 2878 2963 2633 3030 
Q 2388 3097 2138 3097 
Q 1578 3097 1268 2742 
Q 959 2388 959 1747 
Q 959 1106 1268 751 
Q 1578 397 2138 397 
Q 2388 397 2633 464 
Q 2878 531 3122 666 
L 3122 134 
Q 2881 22 2623 -34 
Q 2366 -91 2075 -91 
Q 1284 -91 818 406 
Q 353 903 353 1747 
Q 353 2603 823 3093 
Q 1294 3584 2113 3584 
Q 2378 3584 2631 3529 
Q 2884 3475 3122 3366 
z
" transform="scale(0.015625)"/>
      <path id="DejaVuSans-5f" d="M 3263 -1063 
L 3263 -1509 
L -63 -1509 
L -63 -1063 
L 3263 -1063 
z
" transform="scale(0.015625)"/>
     </defs>
     <use xlink:href="#DejaVuSans-73"/>
     <use xlink:href="#DejaVuSans-63" transform="translate(52.099609 0)"/>
     <use xlink:href="#DejaVuSans-61" transform="translate(107.080078 0)"/>
     <use xlink:href="#DejaVuSans-6c" transform="translate(168.359375 0)"/>
     <use xlink:href="#DejaVuSans-65" transform="translate(196.142578 0)"/>
     <use xlink:href="#DejaVuSans-64" transform="translate(257.666016 0)"/>
     <use xlink:href="#DejaVuSans-5f" transform="translate(321.142578 0)"/>
     <use xlink:href="#DejaVuSans-64" transform="translate(371.142578 0)"/>
     <use xlink:href="#DejaVuSans-6f" transform="translate(434.619141 0)"/>
     <use xlink:href="#DejaVuSans-74" transform="translate(495.800781 0)"/>
     <use xlink:href="#DejaVuSans-5f" transform="translate(535.009766 0)"/>
     <use xlink:href="#DejaVuSans-70" transform="translate(585.009766 0)"/>
     <use xlink:href="#DejaVuSans-72" transform="translate(648.486328 0)"/>
     <use xlink:href="#DejaVuSans-6f" transform="translate(687.349609 0)"/>
     <use xlink:href="#DejaVuSans-64" transform="translate(748.53125 0)"/>
     <use xlink:href="#DejaVuSans-75" transform="translate(812.007812 0)"/>
     <use xlink:href="#DejaVuSans-63" transform="translate(875.386719 0)"/>
     <use xlink:href="#DejaVuSans-74" transform="translate(930.367188 0)"/>
     <use xlink:href="#DejaVuSans-5f" transform="translate(969.576172 0)"/>
     <use xlink:href="#DejaVuSans-61" transform="translate(1019.576172 0)"/>
     <use xlink:href="#DejaVuSans-74" transform="translate(1080.855469 0)"/>
     <use xlink:href="#DejaVuSans-74" transform="translate(1120.064453 0)"/>
     <use xlink:href="#DejaVuSans-65" transform="translate(1159.273438 0)"/>
     <use xlink:href="#DejaVuSans-6e" transform="translate(1220.796875 0)"/>
     <use xlink:href="#DejaVuSans-74" transform="translate(1284.175781 0)"/>
     <use xlink:href="#DejaVuSans-69" transform="translate(1323.384766 0)"/>
     <use xlink:href="#DejaVuSans-6f" transform="translate(1351.167969 0)"/>
     <use xlink:href="#DejaVuSans-6e" transform="translate(1412.349609 0)"/>
    </g>
    <!--  -->
    <g style="fill: #0f172a" transform="translate(749.7 189.516437) scale(0.1 -0.1)"/>
    <!--  tiled QKᵀ → online softmax → PV -->
    <g style="fill: #0f172a" transform="translate(668.191406 200.71425) scale(0.1 -0.1)">
     <defs>
      <path id="DejaVuSans-2192" d="M 5050 2147 
L 5050 1866 
L 3822 638 
L 3447 1013 
L 4175 1741 
L 366 1741 
L 366 2272 
L 4175 2272 
L 3447 3000 
L 3822 3375 
L 5050 2147 
z
" transform="scale(0.015625)"/>
     </defs>
     <use xlink:href="#DejaVuSans-20"/>
     <use xlink:href="#DejaVuSans-74" transform="translate(31.787109 0)"/>
     <use xlink:href="#DejaVuSans-69" transform="translate(70.996094 0)"/>
     <use xlink:href="#DejaVuSans-6c" transform="translate(98.779297 0)"/>
     <use xlink:href="#DejaVuSans-65" transform="translate(126.5625 0)"/>
     <use xlink:href="#DejaVuSans-64" transform="translate(188.085938 0)"/>
     <use xlink:href="#DejaVuSans-20" transform="translate(251.5625 0)"/>
     <use xlink:href="#DejaVuSans-51" transform="translate(283.349609 0)"/>
     <use xlink:href="#DejaVuSans-4b" transform="translate(362.060547 0)"/>
     <use xlink:href="#DejaVuSans-1d40" transform="translate(427.636719 0)"/>
     <use xlink:href="#DejaVuSans-20" transform="translate(466.113281 0)"/>
     <use xlink:href="#DejaVuSans-2192" transform="translate(497.900391 0)"/>
     <use xlink:href="#DejaVuSans-20" transform="translate(581.689453 0)"/>
     <use xlink:href="#DejaVuSans-6f" transform="translate(613.476562 0)"/>
     <use xlink:href="#DejaVuSans-6e" transform="translate(674.658203 0)"/>
     <use xlink:href="#DejaVuSans-6c" transform="translate(738.037109 0)"/>
     <use xlink:href="#DejaVuSans-69" transform="translate(765.820312 0)"/>
     <use xlink:href="#DejaVuSans-6e" transform="translate(793.603516 0)"/>
     <use xlink:href="#DejaVuSans-65" transform="translate(856.982422 0)"/>
     <use xlink:href="#DejaVuSans-20" transform="translate(918.505859 0)"/>
     <use xlink:href="#DejaVuSans-73" transform="translate(950.292969 0)"/>
     <use xlink:href="#DejaVuSans-6f" transform="translate(1002.392578 0)"/>
     <use xlink:href="#DejaVuSans-66" transform="translate(1063.574219 0)"/>
     <use xlink:href="#DejaVuSans-74" transform="translate(1097.029297 0)"/>
     <use xlink:href="#DejaVuSans-6d" transform="translate(1136.238281 0)"/>
     <use xlink:href="#DejaVuSans-61" transform="translate(1233.650391 0)"/>
     <use xlink:href="#DejaVuSans-78" transform="translate(1294.929688 0)"/>
     <use xlink:href="#DejaVuSans-20" transform="translate(1354.109375 0)"/>
     <use xlink:href="#DejaVuSans-2192" transform="translate(1385.896484 0)"/>
     <use xlink:href="#DejaVuSans-20" transform="translate(1469.685547 0)"/>
     <use xlink:href="#DejaVuSans-50" transform="translate(1501.472656 0)"/>
     <use xlink:href="#DejaVuSans-56" transform="translate(1561.775391 0)"/>
    </g>
   </g>
   <g id="text_10">
    <!-- output -->
    <g style="fill: #0f172a" transform="translate(900.709734 186.612937) scale(0.09 -0.09)">
     <use xlink:href="#DejaVuSans-6f"/>
     <use xlink:href="#DejaVuSans-75" transform="translate(61.181641 0)"/>
     <use xlink:href="#DejaVuSans-74" transform="translate(124.560547 0)"/>
     <use xlink:href="#DejaVuSans-70" transform="translate(163.769531 0)"/>
     <use xlink:href="#DejaVuSans-75" transform="translate(227.246094 0)"/>
     <use xlink:href="#DejaVuSans-74" transform="translate(290.625 0)"/>
    </g>
   </g>
   <g id="text_11">
    <!-- N×N intermediates stay tiled/on-chip -->
    <g style="fill: #10b981" transform="translate(645.029688 274.545) scale(0.1 -0.1)">
     <defs>
      <path id="DejaVuSans-Bold-4e" d="M 588 4666 
L 1931 4666 
L 3628 1466 
L 3628 4666 
L 4769 4666 
L 4769 0 
L 3425 0 
L 1728 3200 
L 1728 0 
L 588 0 
L 588 4666 
z
" transform="scale(0.015625)"/>
      <path id="DejaVuSans-Bold-d7" d="M 4563 3359 
L 3206 2003 
L 4563 653 
L 4038 128 
L 2681 1478 
L 1325 128 
L 800 653 
L 2156 2003 
L 800 3359 
L 1325 3884 
L 2681 2528 
L 4038 3884 
L 4563 3359 
z
" transform="scale(0.015625)"/>
      <path id="DejaVuSans-Bold-6d" d="M 3781 2919 
Q 3994 3244 4286 3414 
Q 4578 3584 4928 3584 
Q 5531 3584 5847 3212 
Q 6163 2841 6163 2131 
L 6163 0 
L 5038 0 
L 5038 1825 
Q 5041 1866 5042 1909 
Q 5044 1953 5044 2034 
Q 5044 2406 4934 2573 
Q 4825 2741 4581 2741 
Q 4263 2741 4089 2478 
Q 3916 2216 3909 1719 
L 3909 0 
L 2784 0 
L 2784 1825 
Q 2784 2406 2684 2573 
Q 2584 2741 2328 2741 
Q 2006 2741 1831 2477 
Q 1656 2213 1656 1722 
L 1656 0 
L 531 0 
L 531 3500 
L 1656 3500 
L 1656 2988 
Q 1863 3284 2130 3434 
Q 2397 3584 2719 3584 
Q 3081 3584 3359 3409 
Q 3638 3234 3781 2919 
z
" transform="scale(0.015625)"/>
      <path id="DejaVuSans-Bold-73" d="M 3272 3391 
L 3272 2541 
Q 2913 2691 2578 2766 
Q 2244 2841 1947 2841 
Q 1628 2841 1473 2761 
Q 1319 2681 1319 2516 
Q 1319 2381 1436 2309 
Q 1553 2238 1856 2203 
L 2053 2175 
Q 2913 2066 3209 1816 
Q 3506 1566 3506 1031 
Q 3506 472 3093 190 
Q 2681 -91 1863 -91 
Q 1516 -91 1145 -36 
Q 775 19 384 128 
L 384 978 
Q 719 816 1070 734 
Q 1422 653 1784 653 
Q 2113 653 2278 743 
Q 2444 834 2444 1013 
Q 2444 1163 2330 1236 
Q 2216 1309 1875 1350 
L 1678 1375 
Q 931 1469 631 1722 
Q 331 1975 331 2491 
Q 331 3047 712 3315 
Q 1094 3584 1881 3584 
Q 2191 3584 2531 3537 
Q 2872 3491 3272 3391 
z
" transform="scale(0.015625)"/>
      <path id="DejaVuSans-Bold-79" d="M 78 3500 
L 1197 3500 
L 2138 1125 
L 2938 3500 
L 4056 3500 
L 2584 -331 
Q 2363 -916 2067 -1148 
Q 1772 -1381 1288 -1381 
L 641 -1381 
L 641 -647 
L 991 -647 
Q 1275 -647 1404 -556 
Q 1534 -466 1606 -231 
L 1638 -134 
L 78 3500 
z
" transform="scale(0.015625)"/>
      <path id="DejaVuSans-Bold-6c" d="M 538 4863 
L 1656 4863 
L 1656 0 
L 538 0 
L 538 4863 
z
" transform="scale(0.015625)"/>
      <path id="DejaVuSans-Bold-2f" d="M 1644 4666 
L 2338 4666 
L 691 -594 
L 0 -594 
L 1644 4666 
z
" transform="scale(0.015625)"/>
      <path id="DejaVuSans-Bold-63" d="M 3366 3391 
L 3366 2478 
Q 3138 2634 2908 2709 
Q 2678 2784 2431 2784 
Q 1963 2784 1702 2511 
Q 1441 2238 1441 1747 
Q 1441 1256 1702 982 
Q 1963 709 2431 709 
Q 2694 709 2930 787 
Q 3166 866 3366 1019 
L 3366 103 
Q 3103 6 2833 -42 
Q 2563 -91 2291 -91 
Q 1344 -91 809 395 
Q 275 881 275 1747 
Q 275 2613 809 3098 
Q 1344 3584 2291 3584 
Q 2566 3584 2833 3536 
Q 3100 3488 3366 3391 
z
" transform="scale(0.015625)"/>
      <path id="DejaVuSans-Bold-68" d="M 4056 2131 
L 4056 0 
L 2931 0 
L 2931 347 
L 2931 1625 
Q 2931 2084 2911 2256 
Q 2891 2428 2841 2509 
Q 2775 2619 2662 2680 
Q 2550 2741 2406 2741 
Q 2056 2741 1856 2470 
Q 1656 2200 1656 1722 
L 1656 0 
L 538 0 
L 538 4863 
L 1656 4863 
L 1656 2988 
Q 1909 3294 2193 3439 
Q 2478 3584 2822 3584 
Q 3428 3584 3742 3212 
Q 4056 2841 4056 2131 
z
" transform="scale(0.015625)"/>
      <path id="DejaVuSans-Bold-70" d="M 1656 506 
L 1656 -1331 
L 538 -1331 
L 538 3500 
L 1656 3500 
L 1656 2988 
Q 1888 3294 2169 3439 
Q 2450 3584 2816 3584 
Q 3463 3584 3878 3070 
Q 4294 2556 4294 1747 
Q 4294 938 3878 423 
Q 3463 -91 2816 -91 
Q 2450 -91 2169 54 
Q 1888 200 1656 506 
z
M 2400 2772 
Q 2041 2772 1848 2508 
Q 1656 2244 1656 1747 
Q 1656 1250 1848 986 
Q 2041 722 2400 722 
Q 2759 722 2948 984 
Q 3138 1247 3138 1747 
Q 3138 2247 2948 2509 
Q 2759 2772 2400 2772 
z
" transform="scale(0.015625)"/>
     </defs>
     <use xlink:href="#DejaVuSans-Bold-4e"/>
     <use xlink:href="#DejaVuSans-Bold-d7" transform="translate(83.691406 0)"/>
     <use xlink:href="#DejaVuSans-Bold-4e" transform="translate(167.480469 0)"/>
     <use xlink:href="#DejaVuSans-Bold-20" transform="translate(251.171875 0)"/>
     <use xlink:href="#DejaVuSans-Bold-69" transform="translate(285.986328 0)"/>
     <use xlink:href="#DejaVuSans-Bold-6e" transform="translate(320.263672 0)"/>
     <use xlink:href="#DejaVuSans-Bold-74" transform="translate(391.455078 0)"/>
     <use xlink:href="#DejaVuSans-Bold-65" transform="translate(439.257812 0)"/>
     <use xlink:href="#DejaVuSans-Bold-72" transform="translate(507.080078 0)"/>
     <use xlink:href="#DejaVuSans-Bold-6d" transform="translate(556.396484 0)"/>
     <use xlink:href="#DejaVuSans-Bold-65" transform="translate(660.595703 0)"/>
     <use xlink:href="#DejaVuSans-Bold-64" transform="translate(728.417969 0)"/>
     <use xlink:href="#DejaVuSans-Bold-69" transform="translate(800 0)"/>
     <use xlink:href="#DejaVuSans-Bold-61" transform="translate(834.277344 0)"/>
     <use xlink:href="#DejaVuSans-Bold-74" transform="translate(901.757812 0)"/>
     <use xlink:href="#DejaVuSans-Bold-65" transform="translate(949.560547 0)"/>
     <use xlink:href="#DejaVuSans-Bold-73" transform="translate(1017.382812 0)"/>
     <use xlink:href="#DejaVuSans-Bold-20" transform="translate(1076.904297 0)"/>
     <use xlink:href="#DejaVuSans-Bold-73" transform="translate(1111.71875 0)"/>
     <use xlink:href="#DejaVuSans-Bold-74" transform="translate(1171.240234 0)"/>
     <use xlink:href="#DejaVuSans-Bold-61" transform="translate(1219.042969 0)"/>
     <use xlink:href="#DejaVuSans-Bold-79" transform="translate(1283.398438 0)"/>
     <use xlink:href="#DejaVuSans-Bold-20" transform="translate(1348.583984 0)"/>
     <use xlink:href="#DejaVuSans-Bold-74" transform="translate(1383.398438 0)"/>
     <use xlink:href="#DejaVuSans-Bold-69" transform="translate(1431.201172 0)"/>
     <use xlink:href="#DejaVuSans-Bold-6c" transform="translate(1465.478516 0)"/>
     <use xlink:href="#DejaVuSans-Bold-65" transform="translate(1499.755859 0)"/>
     <use xlink:href="#DejaVuSans-Bold-64" transform="translate(1567.578125 0)"/>
     <use xlink:href="#DejaVuSans-Bold-2f" transform="translate(1639.160156 0)"/>
     <use xlink:href="#DejaVuSans-Bold-6f" transform="translate(1675.683594 0)"/>
     <use xlink:href="#DejaVuSans-Bold-6e" transform="translate(1744.384766 0)"/>
     <use xlink:href="#DejaVuSans-Bold-2d" transform="translate(1815.576172 0)"/>
     <use xlink:href="#DejaVuSans-Bold-63" transform="translate(1857.080078 0)"/>
     <use xlink:href="#DejaVuSans-Bold-68" transform="translate(1916.357422 0)"/>
     <use xlink:href="#DejaVuSans-Bold-69" transform="translate(1987.548828 0)"/>
     <use xlink:href="#DejaVuSans-Bold-70" transform="translate(2021.826172 0)"/>
    </g>
   </g>
   <g id="text_12">
    <!-- same weights and attention equation; lower activation memory -->
    <g style="fill: #64748b" transform="translate(606.163359 297.771) scale(0.09 -0.09)">
     <defs>
      <path id="DejaVuSans-77" d="M 269 3500 
L 844 3500 
L 1563 769 
L 2278 3500 
L 2956 3500 
L 3675 769 
L 4391 3500 
L 4966 3500 
L 4050 0 
L 3372 0 
L 2619 2869 
L 1863 0 
L 1184 0 
L 269 3500 
z
" transform="scale(0.015625)"/>
      <path id="DejaVuSans-71" d="M 947 1747 
Q 947 1113 1208 752 
Q 1469 391 1925 391 
Q 2381 391 2643 752 
Q 2906 1113 2906 1747 
Q 2906 2381 2643 2742 
Q 2381 3103 1925 3103 
Q 1469 3103 1208 2742 
Q 947 2381 947 1747 
z
M 2906 525 
Q 2725 213 2448 61 
Q 2172 -91 1784 -91 
Q 1150 -91 751 415 
Q 353 922 353 1747 
Q 353 2572 751 3078 
Q 1150 3584 1784 3584 
Q 2172 3584 2448 3432 
Q 2725 3281 2906 2969 
L 2906 3500 
L 3481 3500 
L 3481 -1331 
L 2906 -1331 
L 2906 525 
z
" transform="scale(0.015625)"/>
      <path id="DejaVuSans-3b" d="M 750 3309 
L 1409 3309 
L 1409 2516 
L 750 2516 
L 750 3309 
z
M 750 794 
L 1409 794 
L 1409 256 
L 897 -744 
L 494 -744 
L 750 256 
L 750 794 
z
" transform="scale(0.015625)"/>
      <path id="DejaVuSans-76" d="M 191 3500 
L 800 3500 
L 1894 563 
L 2988 3500 
L 3597 3500 
L 2284 0 
L 1503 0 
L 191 3500 
z
" transform="scale(0.015625)"/>
     </defs>
     <use xlink:href="#DejaVuSans-73"/>
     <use xlink:href="#DejaVuSans-61" transform="translate(52.099609 0)"/>
     <use xlink:href="#DejaVuSans-6d" transform="translate(113.378906 0)"/>
     <use xlink:href="#DejaVuSans-65" transform="translate(210.791016 0)"/>
     <use xlink:href="#DejaVuSans-20" transform="translate(272.314453 0)"/>
     <use xlink:href="#DejaVuSans-77" transform="translate(304.101562 0)"/>
     <use xlink:href="#DejaVuSans-65" transform="translate(385.888672 0)"/>
     <use xlink:href="#DejaVuSans-69" transform="translate(447.412109 0)"/>
     <use xlink:href="#DejaVuSans-67" transform="translate(475.195312 0)"/>
     <use xlink:href="#DejaVuSans-68" transform="translate(538.671875 0)"/>
     <use xlink:href="#DejaVuSans-74" transform="translate(602.050781 0)"/>
     <use xlink:href="#DejaVuSans-73" transform="translate(641.259766 0)"/>
     <use xlink:href="#DejaVuSans-20" transform="translate(693.359375 0)"/>
     <use xlink:href="#DejaVuSans-61" transform="translate(725.146484 0)"/>
     <use xlink:href="#DejaVuSans-6e" transform="translate(786.425781 0)"/>
     <use xlink:href="#DejaVuSans-64" transform="translate(849.804688 0)"/>
     <use xlink:href="#DejaVuSans-20" transform="translate(913.28125 0)"/>
     <use xlink:href="#DejaVuSans-61" transform="translate(945.068359 0)"/>
     <use xlink:href="#DejaVuSans-74" transform="translate(1006.347656 0)"/>
     <use xlink:href="#DejaVuSans-74" transform="translate(1045.556641 0)"/>
     <use xlink:href="#DejaVuSans-65" transform="translate(1084.765625 0)"/>
     <use xlink:href="#DejaVuSans-6e" transform="translate(1146.289062 0)"/>
     <use xlink:href="#DejaVuSans-74" transform="translate(1209.667969 0)"/>
     <use xlink:href="#DejaVuSans-69" transform="translate(1248.876953 0)"/>
     <use xlink:href="#DejaVuSans-6f" transform="translate(1276.660156 0)"/>
     <use xlink:href="#DejaVuSans-6e" transform="translate(1337.841797 0)"/>
     <use xlink:href="#DejaVuSans-20" transform="translate(1401.220703 0)"/>
     <use xlink:href="#DejaVuSans-65" transform="translate(1433.007812 0)"/>
     <use xlink:href="#DejaVuSans-71" transform="translate(1494.53125 0)"/>
     <use xlink:href="#DejaVuSans-75" transform="translate(1558.007812 0)"/>
     <use xlink:href="#DejaVuSans-61" transform="translate(1621.386719 0)"/>
     <use xlink:href="#DejaVuSans-74" transform="translate(1682.666016 0)"/>
     <use xlink:href="#DejaVuSans-69" transform="translate(1721.875 0)"/>
     <use xlink:href="#DejaVuSans-6f" transform="translate(1749.658203 0)"/>
     <use xlink:href="#DejaVuSans-6e" transform="translate(1810.839844 0)"/>
     <use xlink:href="#DejaVuSans-3b" transform="translate(1874.21875 0)"/>
     <use xlink:href="#DejaVuSans-20" transform="translate(1907.910156 0)"/>
     <use xlink:href="#DejaVuSans-6c" transform="translate(1939.697266 0)"/>
     <use xlink:href="#DejaVuSans-6f" transform="translate(1967.480469 0)"/>
     <use xlink:href="#DejaVuSans-77" transform="translate(2028.662109 0)"/>
     <use xlink:href="#DejaVuSans-65" transform="translate(2110.449219 0)"/>
     <use xlink:href="#DejaVuSans-72" transform="translate(2171.972656 0)"/>
     <use xlink:href="#DejaVuSans-20" transform="translate(2213.085938 0)"/>
     <use xlink:href="#DejaVuSans-61" transform="translate(2244.873047 0)"/>
     <use xlink:href="#DejaVuSans-63" transform="translate(2306.152344 0)"/>
     <use xlink:href="#DejaVuSans-74" transform="translate(2361.132812 0)"/>
     <use xlink:href="#DejaVuSans-69" transform="translate(2400.341797 0)"/>
     <use xlink:href="#DejaVuSans-76" transform="translate(2428.125 0)"/>
     <use xlink:href="#DejaVuSans-61" transform="translate(2487.304688 0)"/>
     <use xlink:href="#DejaVuSans-74" transform="translate(2548.583984 0)"/>
     <use xlink:href="#DejaVuSans-69" transform="translate(2587.792969 0)"/>
     <use xlink:href="#DejaVuSans-6f" transform="translate(2615.576172 0)"/>
     <use xlink:href="#DejaVuSans-6e" transform="translate(2676.757812 0)"/>
     <use xlink:href="#DejaVuSans-20" transform="translate(2740.136719 0)"/>
     <use xlink:href="#DejaVuSans-6d" transform="translate(2771.923828 0)"/>
     <use xlink:href="#DejaVuSans-65" transform="translate(2869.335938 0)"/>
     <use xlink:href="#DejaVuSans-6d" transform="translate(2930.859375 0)"/>
     <use xlink:href="#DejaVuSans-6f" transform="translate(3028.271484 0)"/>
     <use xlink:href="#DejaVuSans-72" transform="translate(3089.453125 0)"/>
     <use xlink:href="#DejaVuSans-79" transform="translate(3130.566406 0)"/>
    </g>
   </g>
   <g id="text_13">
    <!-- (b) SDPA / Flash-compatible path -->
    <g transform="translate(637.937813 77.76) scale(0.12 -0.12)">
     <defs>
      <path id="DejaVuSans-Bold-62" d="M 2400 722 
Q 2759 722 2948 984 
Q 3138 1247 3138 1747 
Q 3138 2247 2948 2509 
Q 2759 2772 2400 2772 
Q 2041 2772 1848 2508 
Q 1656 2244 1656 1747 
Q 1656 1250 1848 986 
Q 2041 722 2400 722 
z
M 1656 2988 
Q 1888 3294 2169 3439 
Q 2450 3584 2816 3584 
Q 3463 3584 3878 3070 
Q 4294 2556 4294 1747 
Q 4294 938 3878 423 
Q 3463 -91 2816 -91 
Q 2450 -91 2169 54 
Q 1888 200 1656 506 
L 1656 0 
L 538 0 
L 538 4863 
L 1656 4863 
L 1656 2988 
z
" transform="scale(0.015625)"/>
      <path id="DejaVuSans-Bold-53" d="M 3834 4519 
L 3834 3531 
Q 3450 3703 3084 3790 
Q 2719 3878 2394 3878 
Q 1963 3878 1756 3759 
Q 1550 3641 1550 3391 
Q 1550 3203 1689 3098 
Q 1828 2994 2194 2919 
L 2706 2816 
Q 3484 2659 3812 2340 
Q 4141 2022 4141 1434 
Q 4141 663 3683 286 
Q 3225 -91 2284 -91 
Q 1841 -91 1394 -6 
Q 947 78 500 244 
L 500 1259 
Q 947 1022 1364 901 
Q 1781 781 2169 781 
Q 2563 781 2772 912 
Q 2981 1044 2981 1288 
Q 2981 1506 2839 1625 
Q 2697 1744 2272 1838 
L 1806 1941 
Q 1106 2091 782 2419 
Q 459 2747 459 3303 
Q 459 4000 909 4375 
Q 1359 4750 2203 4750 
Q 2588 4750 2994 4692 
Q 3400 4634 3834 4519 
z
" transform="scale(0.015625)"/>
      <path id="DejaVuSans-Bold-44" d="M 1791 3756 
L 1791 909 
L 2222 909 
Q 2959 909 3348 1275 
Q 3738 1641 3738 2338 
Q 3738 3031 3350 3393 
Q 2963 3756 2222 3756 
L 1791 3756 
z
M 588 4666 
L 1856 4666 
Q 2919 4666 3439 4514 
Q 3959 4363 4331 4000 
Q 4659 3684 4818 3271 
Q 4978 2859 4978 2338 
Q 4978 1809 4818 1395 
Q 4659 981 4331 666 
Q 3956 303 3431 151 
Q 2906 0 1856 0 
L 588 0 
L 588 4666 
z
" transform="scale(0.015625)"/>
      <path id="DejaVuSans-Bold-50" d="M 588 4666 
L 2584 4666 
Q 3475 4666 3951 4270 
Q 4428 3875 4428 3144 
Q 4428 2409 3951 2014 
Q 3475 1619 2584 1619 
L 1791 1619 
L 1791 0 
L 588 0 
L 588 4666 
z
M 1791 3794 
L 1791 2491 
L 2456 2491 
Q 2806 2491 2997 2661 
Q 3188 2831 3188 3144 
Q 3188 3456 2997 3625 
Q 2806 3794 2456 3794 
L 1791 3794 
z
" transform="scale(0.015625)"/>
      <path id="DejaVuSans-Bold-41" d="M 3419 850 
L 1538 850 
L 1241 0 
L 31 0 
L 1759 4666 
L 3194 4666 
L 4922 0 
L 3713 0 
L 3419 850 
z
M 1838 1716 
L 3116 1716 
L 2478 3572 
L 1838 1716 
z
" transform="scale(0.015625)"/>
      <path id="DejaVuSans-Bold-46" d="M 588 4666 
L 3834 4666 
L 3834 3756 
L 1791 3756 
L 1791 2888 
L 3713 2888 
L 3713 1978 
L 1791 1978 
L 1791 0 
L 588 0 
L 588 4666 
z
" transform="scale(0.015625)"/>
     </defs>
     <use xlink:href="#DejaVuSans-Bold-28"/>
     <use xlink:href="#DejaVuSans-Bold-62" transform="translate(45.703125 0)"/>
     <use xlink:href="#DejaVuSans-Bold-29" transform="translate(117.285156 0)"/>
     <use xlink:href="#DejaVuSans-Bold-20" transform="translate(162.988281 0)"/>
     <use xlink:href="#DejaVuSans-Bold-53" transform="translate(197.802734 0)"/>
     <use xlink:href="#DejaVuSans-Bold-44" transform="translate(269.824219 0)"/>
     <use xlink:href="#DejaVuSans-Bold-50" transform="translate(352.832031 0)"/>
     <use xlink:href="#DejaVuSans-Bold-41" transform="translate(416.998047 0)"/>
     <use xlink:href="#DejaVuSans-Bold-20" transform="translate(494.390625 0)"/>
     <use xlink:href="#DejaVuSans-Bold-2f" transform="translate(529.205078 0)"/>
     <use xlink:href="#DejaVuSans-Bold-20" transform="translate(565.728516 0)"/>
     <use xlink:href="#DejaVuSans-Bold-46" transform="translate(600.542969 0)"/>
     <use xlink:href="#DejaVuSans-Bold-6c" transform="translate(668.853516 0)"/>
     <use xlink:href="#DejaVuSans-Bold-61" transform="translate(703.130859 0)"/>
     <use xlink:href="#DejaVuSans-Bold-73" transform="translate(770.611328 0)"/>
     <use xlink:href="#DejaVuSans-Bold-68" transform="translate(830.132812 0)"/>
     <use xlink:href="#DejaVuSans-Bold-2d" transform="translate(901.324219 0)"/>
     <use xlink:href="#DejaVuSans-Bold-63" transform="translate(942.828125 0)"/>
     <use xlink:href="#DejaVuSans-Bold-6f" transform="translate(1002.105469 0)"/>
     <use xlink:href="#DejaVuSans-Bold-6d" transform="translate(1070.806641 0)"/>
     <use xlink:href="#DejaVuSans-Bold-70" transform="translate(1175.005859 0)"/>
     <use xlink:href="#DejaVuSans-Bold-61" transform="translate(1246.587891 0)"/>
     <use xlink:href="#DejaVuSans-Bold-74" transform="translate(1314.068359 0)"/>
     <use xlink:href="#DejaVuSans-Bold-69" transform="translate(1361.871094 0)"/>
     <use xlink:href="#DejaVuSans-Bold-62" transform="translate(1396.148438 0)"/>
     <use xlink:href="#DejaVuSans-Bold-6c" transform="translate(1467.730469 0)"/>
     <use xlink:href="#DejaVuSans-Bold-65" transform="translate(1502.007812 0)"/>
     <use xlink:href="#DejaVuSans-Bold-20" transform="translate(1569.830078 0)"/>
     <use xlink:href="#DejaVuSans-Bold-70" transform="translate(1604.644531 0)"/>
     <use xlink:href="#DejaVuSans-Bold-61" transform="translate(1676.226562 0)"/>
     <use xlink:href="#DejaVuSans-Bold-74" transform="translate(1743.707031 0)"/>
     <use xlink:href="#DejaVuSans-Bold-68" transform="translate(1791.509766 0)"/>
    </g>
   </g>
  </g>
  <g id="text_14">
   <!-- SDPA removes attention intermediates without changing the model -->
   <g transform="translate(232.834844 17.837812) scale(0.14 -0.14)">
    <defs>
     <path id="DejaVuSans-Bold-76" d="M 97 3500 
L 1216 3500 
L 2088 1081 
L 2956 3500 
L 4078 3500 
L 2700 0 
L 1472 0 
L 97 3500 
z
" transform="scale(0.015625)"/>
     <path id="DejaVuSans-Bold-75" d="M 500 1363 
L 500 3500 
L 1625 3500 
L 1625 3150 
Q 1625 2866 1622 2436 
Q 1619 2006 1619 1863 
Q 1619 1441 1641 1255 
Q 1663 1069 1716 984 
Q 1784 875 1895 815 
Q 2006 756 2150 756 
Q 2500 756 2700 1025 
Q 2900 1294 2900 1772 
L 2900 3500 
L 4019 3500 
L 4019 0 
L 2900 0 
L 2900 506 
Q 2647 200 2364 54 
Q 2081 -91 1741 -91 
Q 1134 -91 817 281 
Q 500 653 500 1363 
z
" transform="scale(0.015625)"/>
     <path id="DejaVuSans-Bold-67" d="M 2919 594 
Q 2688 288 2409 144 
Q 2131 0 1766 0 
Q 1125 0 706 504 
Q 288 1009 288 1791 
Q 288 2575 706 3076 
Q 1125 3578 1766 3578 
Q 2131 3578 2409 3434 
Q 2688 3291 2919 2981 
L 2919 3500 
L 4044 3500 
L 4044 353 
Q 4044 -491 3511 -936 
Q 2978 -1381 1966 -1381 
Q 1638 -1381 1331 -1331 
Q 1025 -1281 716 -1178 
L 716 -306 
Q 1009 -475 1290 -558 
Q 1572 -641 1856 -641 
Q 2406 -641 2662 -400 
Q 2919 -159 2919 353 
L 2919 594 
z
M 2181 2772 
Q 1834 2772 1640 2515 
Q 1447 2259 1447 1791 
Q 1447 1309 1634 1061 
Q 1822 813 2181 813 
Q 2531 813 2725 1069 
Q 2919 1325 2919 1791 
Q 2919 2259 2725 2515 
Q 2531 2772 2181 2772 
z
" transform="scale(0.015625)"/>
    </defs>
    <use xlink:href="#DejaVuSans-Bold-53"/>
    <use xlink:href="#DejaVuSans-Bold-44" transform="translate(72.021484 0)"/>
    <use xlink:href="#DejaVuSans-Bold-50" transform="translate(155.029297 0)"/>
    <use xlink:href="#DejaVuSans-Bold-41" transform="translate(219.195312 0)"/>
    <use xlink:href="#DejaVuSans-Bold-20" transform="translate(296.587891 0)"/>
    <use xlink:href="#DejaVuSans-Bold-72" transform="translate(331.402344 0)"/>
    <use xlink:href="#DejaVuSans-Bold-65" transform="translate(380.71875 0)"/>
    <use xlink:href="#DejaVuSans-Bold-6d" transform="translate(448.541016 0)"/>
    <use xlink:href="#DejaVuSans-Bold-6f" transform="translate(552.740234 0)"/>
    <use xlink:href="#DejaVuSans-Bold-76" transform="translate(621.441406 0)"/>
    <use xlink:href="#DejaVuSans-Bold-65" transform="translate(686.626953 0)"/>
    <use xlink:href="#DejaVuSans-Bold-73" transform="translate(754.449219 0)"/>
    <use xlink:href="#DejaVuSans-Bold-20" transform="translate(813.970703 0)"/>
    <use xlink:href="#DejaVuSans-Bold-61" transform="translate(848.785156 0)"/>
    <use xlink:href="#DejaVuSans-Bold-74" transform="translate(916.265625 0)"/>
    <use xlink:href="#DejaVuSans-Bold-74" transform="translate(964.068359 0)"/>
    <use xlink:href="#DejaVuSans-Bold-65" transform="translate(1011.871094 0)"/>
    <use xlink:href="#DejaVuSans-Bold-6e" transform="translate(1079.693359 0)"/>
    <use xlink:href="#DejaVuSans-Bold-74" transform="translate(1150.884766 0)"/>
    <use xlink:href="#DejaVuSans-Bold-69" transform="translate(1198.6875 0)"/>
    <use xlink:href="#DejaVuSans-Bold-6f" transform="translate(1232.964844 0)"/>
    <use xlink:href="#DejaVuSans-Bold-6e" transform="translate(1301.666016 0)"/>
    <use xlink:href="#DejaVuSans-Bold-20" transform="translate(1372.857422 0)"/>
    <use xlink:href="#DejaVuSans-Bold-69" transform="translate(1407.671875 0)"/>
    <use xlink:href="#DejaVuSans-Bold-6e" transform="translate(1441.949219 0)"/>
    <use xlink:href="#DejaVuSans-Bold-74" transform="translate(1513.140625 0)"/>
    <use xlink:href="#DejaVuSans-Bold-65" transform="translate(1560.943359 0)"/>
    <use xlink:href="#DejaVuSans-Bold-72" transform="translate(1628.765625 0)"/>
    <use xlink:href="#DejaVuSans-Bold-6d" transform="translate(1678.082031 0)"/>
    <use xlink:href="#DejaVuSans-Bold-65" transform="translate(1782.28125 0)"/>
    <use xlink:href="#DejaVuSans-Bold-64" transform="translate(1850.103516 0)"/>
    <use xlink:href="#DejaVuSans-Bold-69" transform="translate(1921.685547 0)"/>
    <use xlink:href="#DejaVuSans-Bold-61" transform="translate(1955.962891 0)"/>
    <use xlink:href="#DejaVuSans-Bold-74" transform="translate(2023.443359 0)"/>
    <use xlink:href="#DejaVuSans-Bold-65" transform="translate(2071.246094 0)"/>
    <use xlink:href="#DejaVuSans-Bold-73" transform="translate(2139.068359 0)"/>
    <use xlink:href="#DejaVuSans-Bold-20" transform="translate(2198.589844 0)"/>
    <use xlink:href="#DejaVuSans-Bold-77" transform="translate(2233.404297 0)"/>
    <use xlink:href="#DejaVuSans-Bold-69" transform="translate(2325.787109 0)"/>
    <use xlink:href="#DejaVuSans-Bold-74" transform="translate(2360.064453 0)"/>
    <use xlink:href="#DejaVuSans-Bold-68" transform="translate(2407.867188 0)"/>
    <use xlink:href="#DejaVuSans-Bold-6f" transform="translate(2479.058594 0)"/>
    <use xlink:href="#DejaVuSans-Bold-75" transform="translate(2547.759766 0)"/>
    <use xlink:href="#DejaVuSans-Bold-74" transform="translate(2618.951172 0)"/>
    <use xlink:href="#DejaVuSans-Bold-20" transform="translate(2666.753906 0)"/>
    <use xlink:href="#DejaVuSans-Bold-63" transform="translate(2701.568359 0)"/>
    <use xlink:href="#DejaVuSans-Bold-68" transform="translate(2760.845703 0)"/>
    <use xlink:href="#DejaVuSans-Bold-61" transform="translate(2832.037109 0)"/>
    <use xlink:href="#DejaVuSans-Bold-6e" transform="translate(2899.517578 0)"/>
    <use xlink:href="#DejaVuSans-Bold-67" transform="translate(2970.708984 0)"/>
    <use xlink:href="#DejaVuSans-Bold-69" transform="translate(3042.291016 0)"/>
    <use xlink:href="#DejaVuSans-Bold-6e" transform="translate(3076.568359 0)"/>
    <use xlink:href="#DejaVuSans-Bold-67" transform="translate(3147.759766 0)"/>
    <use xlink:href="#DejaVuSans-Bold-20" transform="translate(3219.341797 0)"/>
    <use xlink:href="#DejaVuSans-Bold-74" transform="translate(3254.15625 0)"/>
    <use xlink:href="#DejaVuSans-Bold-68" transform="translate(3301.958984 0)"/>
    <use xlink:href="#DejaVuSans-Bold-65" transform="translate(3373.150391 0)"/>
    <use xlink:href="#DejaVuSans-Bold-20" transform="translate(3440.972656 0)"/>
    <use xlink:href="#DejaVuSans-Bold-6d" transform="translate(3475.787109 0)"/>
    <use xlink:href="#DejaVuSans-Bold-6f" transform="translate(3579.986328 0)"/>
    <use xlink:href="#DejaVuSans-Bold-64" transform="translate(3648.6875 0)"/>
    <use xlink:href="#DejaVuSans-Bold-65" transform="translate(3720.269531 0)"/>
    <use xlink:href="#DejaVuSans-Bold-6c" transform="translate(3788.091797 0)"/>
   </g>
  </g>
 </g>
 <defs>
  <clipPath id="p518383bb61">
   <rect x="7.2" y="83.76" width="487.8" height="265.44"/>
  </clipPath>
  <clipPath id="pae772f7171">
   <rect x="505.8" y="83.76" width="487.8" height="265.44"/>
  </clipPath>
 </defs>
</svg>
